<svg xmlns="http://www.w3.org/2000/svg" xmlns:xlink="http://www.w3.org/1999/xlink" width="122" zoomAndPan="magnify" viewBox="0 0 91.5 97.499997" height="130" preserveAspectRatio="xMidYMid meet" version="1.0"><defs><filter x="0%" y="0%" width="100%" height="100%" id="9c42d3286d"><feColorMatrix values="0 0 0 0 1 0 0 0 0 1 0 0 0 0 1 0 0 0 1 0" color-interpolation-filters="sRGB"/></filter><g/><clipPath id="e6c8203451"><path d="M 20 0.015625 L 62 0.015625 L 62 96.988281 L 20 96.988281 Z M 20 0.015625 " clip-rule="nonzero"/></clipPath><mask id="2d92890c56"><g filter="url(#9c42d3286d)"><rect x="-9.15" width="109.8" fill="#000000" y="-9.75" height="116.999996" fill-opacity="0.6"/></g></mask><clipPath id="f5b9162348"><path d="M 0.390625 0.015625 L 40.574219 0.015625 L 40.574219 96.675781 L 0.390625 96.675781 Z M 0.390625 0.015625 " clip-rule="nonzero"/></clipPath><clipPath id="1e29eb4d25"><path d="M 0.390625 3 L 0.390625 93.695312 C 0.390625 95.34375 1.726562 96.679688 3.375 96.679688 L 37.882812 96.679688 C 39.53125 96.679688 40.867188 95.34375 40.867188 93.695312 L 40.867188 3 C 40.867188 1.351562 39.53125 0.015625 37.882812 0.015625 L 3.375 0.015625 C 1.726562 0.015625 0.390625 1.351562 0.390625 3 Z M 0.390625 3 " clip-rule="nonzero"/></clipPath><clipPath id="fffdd7264d"><rect x="0" width="42" y="0" height="97"/></clipPath></defs><g clip-path="url(#e6c8203451)"><g mask="url(#2d92890c56)"><g transform="matrix(1, 0, 0, 1, 20, -0.000000000000004372)"><g clip-path="url(#fffdd7264d)"><g clip-path="url(#f5b9162348)"><g clip-path="url(#1e29eb4d25)"><path fill="#0097b2" d="M 35 37.117188 L 36.042969 37.117188 C 37.328125 37.117188 38.371094 36.078125 38.371094 34.789062 L 38.371094 23.539062 C 38.371094 22.253906 37.328125 21.210938 36.042969 21.210938 L 31.023438 21.210938 L 31.023438 12.46875 L 31.914062 12.46875 C 33.199219 12.46875 34.242188 11.425781 34.242188 10.140625 C 34.242188 6.1875 31.210938 0.207031 26.636719 0.207031 L 14.613281 0.207031 C 10.039062 0.207031 7.007812 6.1875 7.007812 10.140625 C 7.007812 11.425781 8.050781 12.46875 9.335938 12.46875 L 10.226562 12.46875 L 10.226562 21.210938 L 5.210938 21.210938 C 3.921875 21.210938 2.882812 22.253906 2.882812 23.539062 L 2.882812 34.792969 C 2.882812 36.078125 3.921875 37.121094 5.210938 37.121094 L 6.25 37.121094 L 0.460938 93.917969 C 0.394531 94.574219 0.609375 95.226562 1.050781 95.714844 C 1.492188 96.203125 2.117188 96.480469 2.777344 96.480469 L 38.472656 96.480469 C 39.132812 96.480469 39.757812 96.203125 40.203125 95.714844 C 40.644531 95.226562 40.855469 94.574219 40.789062 93.917969 Z M 14.613281 4.863281 L 26.640625 4.863281 C 27.355469 4.863281 28.4375 6.238281 29.074219 7.8125 L 12.179688 7.8125 C 12.816406 6.238281 13.894531 4.863281 14.613281 4.863281 Z M 26.367188 21.210938 L 14.886719 21.210938 L 14.886719 12.46875 L 26.367188 12.46875 Z M 7.539062 25.867188 L 33.714844 25.867188 L 33.714844 32.460938 L 7.539062 32.460938 Z M 31.789062 51.53125 L 32.929688 62.714844 L 8.320312 62.714844 L 9.460938 51.53125 Z M 9.9375 46.875 L 10.929688 37.117188 L 30.324219 37.117188 L 31.316406 46.875 Z M 25.671875 91.824219 L 15.582031 91.824219 L 15.582031 80.976562 C 15.582031 78.195312 17.84375 75.929688 20.625 75.929688 C 23.410156 75.929688 25.671875 78.195312 25.671875 80.976562 Z M 30.328125 91.824219 L 30.328125 80.976562 C 30.328125 75.625 25.976562 71.273438 20.625 71.273438 C 15.277344 71.273438 10.925781 75.625 10.925781 80.976562 L 10.925781 91.824219 L 5.355469 91.824219 L 7.847656 67.371094 L 33.40625 67.371094 L 35.898438 91.824219 Z M 30.328125 91.824219 " fill-opacity="1" fill-rule="nonzero"/></g></g></g></g></g></g><path fill="#545454" d="M 16.441406 66.800781 L 65.761719 24.761719 L 66.464844 25.589844 L 17.148438 67.628906 Z M 16.441406 66.800781 " fill-opacity="1" fill-rule="nonzero"/><g fill="#545454" fill-opacity="1"><g transform="translate(15.737518, 65.975557)"><g><path d="M 0.546875 -0.46875 L -4.71875 -6.640625 L -3.046875 -8.0625 L 2.125 -2 L 2.890625 -2.65625 C 3.316406 -3.019531 3.644531 -3.445312 3.875 -3.9375 C 4.113281 -4.4375 4.226562 -4.941406 4.21875 -5.453125 C 4.207031 -5.972656 4.050781 -6.4375 3.75 -6.84375 L 3.859375 -6.9375 L 5.484375 -4.671875 Z M 0.546875 -0.46875 "/></g></g></g><g fill="#545454" fill-opacity="1"><g transform="translate(21.950476, 60.679609)"><g><path d="M 1.6875 -1.25 C 1.300781 -0.925781 0.894531 -0.757812 0.46875 -0.75 C 0.0507812 -0.75 -0.28125 -0.894531 -0.53125 -1.1875 C -0.769531 -1.46875 -0.890625 -1.753906 -0.890625 -2.046875 C -0.898438 -2.335938 -0.828125 -2.648438 -0.671875 -2.984375 C -0.523438 -3.328125 -0.335938 -3.703125 -0.109375 -4.109375 C 0.117188 -4.515625 0.347656 -4.972656 0.578125 -5.484375 L -0.09375 -6.28125 C -0.3125 -6.53125 -0.546875 -6.660156 -0.796875 -6.671875 C -1.054688 -6.691406 -1.289062 -6.613281 -1.5 -6.4375 C -1.695312 -6.269531 -1.828125 -6.070312 -1.890625 -5.84375 C -1.953125 -5.613281 -1.875 -5.375 -1.65625 -5.125 C -1.519531 -4.957031 -1.382812 -4.851562 -1.25 -4.8125 C -1.113281 -4.769531 -1 -4.753906 -0.90625 -4.765625 C -0.820312 -4.785156 -0.78125 -4.796875 -0.78125 -4.796875 C -0.695312 -4.691406 -0.660156 -4.53125 -0.671875 -4.3125 C -0.679688 -4.09375 -0.769531 -3.898438 -0.9375 -3.734375 C -1.195312 -3.453125 -1.46875 -3.34375 -1.75 -3.40625 C -2.03125 -3.46875 -2.257812 -3.601562 -2.4375 -3.8125 C -2.625 -4.03125 -2.710938 -4.300781 -2.703125 -4.625 C -2.691406 -4.945312 -2.585938 -5.28125 -2.390625 -5.625 C -2.203125 -5.976562 -1.9375 -6.300781 -1.59375 -6.59375 C -0.882812 -7.195312 -0.15625 -7.503906 0.59375 -7.515625 C 0.90625 -7.515625 1.207031 -7.453125 1.5 -7.328125 C 1.789062 -7.210938 2.054688 -7.015625 2.296875 -6.734375 L 3.859375 -4.90625 C 3.941406 -4.8125 4.023438 -4.734375 4.109375 -4.671875 C 4.203125 -4.617188 4.285156 -4.617188 4.359375 -4.671875 C 4.398438 -4.710938 4.410156 -4.765625 4.390625 -4.828125 C 4.378906 -4.890625 4.3125 -5.007812 4.1875 -5.1875 L 4.265625 -5.234375 C 4.515625 -4.953125 4.625 -4.625 4.59375 -4.25 C 4.5625 -3.875 4.40625 -3.566406 4.125 -3.328125 C 3.875 -3.109375 3.582031 -3 3.25 -3 C 2.925781 -3.007812 2.644531 -3.132812 2.40625 -3.375 C 2.445312 -3.15625 2.445312 -2.914062 2.40625 -2.65625 C 2.363281 -2.394531 2.28125 -2.132812 2.15625 -1.875 C 2.039062 -1.625 1.882812 -1.414062 1.6875 -1.25 Z M 1.890625 -2.515625 C 2.171875 -2.742188 2.3125 -3.0625 2.3125 -3.46875 L 0.671875 -5.390625 C 0.472656 -4.847656 0.363281 -4.363281 0.34375 -3.9375 C 0.320312 -3.519531 0.476562 -3.113281 0.8125 -2.71875 C 0.945312 -2.550781 1.117188 -2.441406 1.328125 -2.390625 C 1.546875 -2.335938 1.734375 -2.378906 1.890625 -2.515625 Z M 1.890625 -2.515625 "/></g></g></g><g fill="#545454" fill-opacity="1"><g transform="translate(27.293179, 56.125469)"><g/></g></g><g fill="#545454" fill-opacity="1"><g transform="translate(29.529404, 54.219303)"><g><path d="M 2.453125 -2.09375 L -2.71875 -8.15625 C -3.144531 -7.789062 -3.453125 -7.382812 -3.640625 -6.9375 C -3.828125 -6.488281 -3.882812 -6.039062 -3.8125 -5.59375 C -3.75 -5.15625 -3.554688 -4.742188 -3.234375 -4.359375 L -3.34375 -4.265625 L -5.09375 -6.3125 L 1.125 -11.625 L 2.875 -9.578125 L 2.765625 -9.484375 C 2.441406 -9.867188 2.0625 -10.125 1.625 -10.25 C 1.195312 -10.382812 0.75 -10.394531 0.28125 -10.28125 C -0.1875 -10.164062 -0.632812 -9.925781 -1.0625 -9.5625 L 4.109375 -3.5 Z M 2.453125 -2.09375 "/></g></g></g><g fill="#545454" fill-opacity="1"><g transform="translate(36.08386, 48.632261)"><g><path d="M 2.8125 -2.203125 C 2.351562 -1.816406 1.847656 -1.570312 1.296875 -1.46875 C 0.753906 -1.363281 0.222656 -1.394531 -0.296875 -1.5625 C -0.816406 -1.738281 -1.265625 -2.046875 -1.640625 -2.484375 C -2.003906 -2.921875 -2.226562 -3.410156 -2.3125 -3.953125 C -2.40625 -4.492188 -2.359375 -5.023438 -2.171875 -5.546875 C -1.984375 -6.078125 -1.660156 -6.535156 -1.203125 -6.921875 C -0.753906 -7.304688 -0.257812 -7.546875 0.28125 -7.640625 C 0.820312 -7.742188 1.359375 -7.710938 1.890625 -7.546875 C 2.421875 -7.378906 2.867188 -7.078125 3.234375 -6.640625 C 3.609375 -6.203125 3.832031 -5.707031 3.90625 -5.15625 C 3.988281 -4.613281 3.9375 -4.082031 3.75 -3.5625 C 3.570312 -3.039062 3.257812 -2.585938 2.8125 -2.203125 Z M 2.71875 -2.3125 C 2.914062 -2.488281 2.992188 -2.726562 2.953125 -3.03125 C 2.910156 -3.332031 2.769531 -3.671875 2.53125 -4.046875 C 2.289062 -4.429688 1.988281 -4.835938 1.625 -5.265625 C 1.257812 -5.691406 0.898438 -6.050781 0.546875 -6.34375 C 0.203125 -6.632812 -0.109375 -6.820312 -0.390625 -6.90625 C -0.679688 -7 -0.921875 -6.96875 -1.109375 -6.8125 C -1.316406 -6.644531 -1.394531 -6.410156 -1.34375 -6.109375 C -1.300781 -5.804688 -1.160156 -5.460938 -0.921875 -5.078125 C -0.691406 -4.691406 -0.394531 -4.285156 -0.03125 -3.859375 C 0.332031 -3.429688 0.6875 -3.070312 1.03125 -2.78125 C 1.375 -2.488281 1.6875 -2.296875 1.96875 -2.203125 C 2.257812 -2.109375 2.507812 -2.144531 2.71875 -2.3125 Z M 2.71875 -2.3125 "/></g></g></g><g fill="#545454" fill-opacity="1"><g transform="translate(41.503684, 44.012383)"><g><path d="M 1.90625 -1.4375 C 1.53125 -1.113281 1.140625 -0.953125 0.734375 -0.953125 C 0.328125 -0.953125 0.0195312 -1.078125 -0.1875 -1.328125 L -3.28125 -4.96875 L -1.65625 -6.34375 L 1.46875 -2.671875 C 1.71875 -2.367188 1.941406 -2.265625 2.140625 -2.359375 C 2.347656 -2.453125 2.476562 -2.679688 2.53125 -3.046875 C 2.5625 -3.117188 2.578125 -3.269531 2.578125 -3.5 C 2.585938 -3.738281 2.585938 -3.929688 2.578125 -4.078125 L -0.3125 -7.484375 L 1.28125 -8.859375 L 4.3125 -5.296875 C 4.394531 -5.203125 4.484375 -5.125 4.578125 -5.0625 C 4.671875 -5.007812 4.753906 -5.015625 4.828125 -5.078125 C 4.859375 -5.109375 4.867188 -5.15625 4.859375 -5.21875 C 4.847656 -5.28125 4.78125 -5.398438 4.65625 -5.578125 L 4.734375 -5.640625 C 4.984375 -5.359375 5.09375 -5.03125 5.0625 -4.65625 C 5.03125 -4.28125 4.875 -3.96875 4.59375 -3.71875 C 4.3125 -3.488281 3.992188 -3.382812 3.640625 -3.40625 C 3.285156 -3.4375 2.992188 -3.585938 2.765625 -3.859375 L 2.75 -3.890625 C 2.75 -3.648438 2.726562 -3.378906 2.6875 -3.078125 C 2.65625 -2.773438 2.578125 -2.476562 2.453125 -2.1875 C 2.335938 -1.894531 2.15625 -1.644531 1.90625 -1.4375 Z M 1.90625 -1.4375 "/></g></g></g><g fill="#545454" fill-opacity="1"><g transform="translate(47.309058, 39.063861)"><g><path d="M -0.5 -7.53125 C -0.28125 -7.71875 -0.03125 -7.859375 0.25 -7.953125 C 0.53125 -8.046875 0.804688 -8.050781 1.078125 -7.96875 C 1.359375 -7.894531 1.628906 -7.707031 1.890625 -7.40625 C 2.023438 -7.238281 2.132812 -7.054688 2.21875 -6.859375 C 2.300781 -6.671875 2.316406 -6.46875 2.265625 -6.25 C 2.222656 -6.039062 2.09375 -5.835938 1.875 -5.640625 C 1.65625 -5.453125 1.421875 -5.378906 1.171875 -5.421875 C 0.921875 -5.472656 0.734375 -5.5625 0.609375 -5.6875 C 0.609375 -5.6875 0.625 -5.753906 0.65625 -5.890625 C 0.695312 -6.035156 0.710938 -6.207031 0.703125 -6.40625 C 0.691406 -6.601562 0.609375 -6.789062 0.453125 -6.96875 C 0.304688 -7.132812 0.132812 -7.238281 -0.0625 -7.28125 C -0.269531 -7.320312 -0.453125 -7.273438 -0.609375 -7.140625 C -0.816406 -6.960938 -0.945312 -6.726562 -1 -6.4375 C -1.050781 -6.144531 -1.03125 -5.832031 -0.9375 -5.5 L 2.171875 -1.84375 L 0.546875 -0.46875 L -3.28125 -4.96875 L -1.65625 -6.34375 L -1.125 -5.703125 C -1.195312 -6.054688 -1.179688 -6.382812 -1.078125 -6.6875 C -0.984375 -7 -0.789062 -7.28125 -0.5 -7.53125 Z M -0.5 -7.53125 "/></g></g></g><g fill="#545454" fill-opacity="1"><g transform="translate(52.233168, 34.866532)"><g/></g></g><g fill="#545454" fill-opacity="1"><g transform="translate(54.469392, 32.960366)"><g><path d="M 2.234375 -1.71875 C 1.890625 -1.425781 1.488281 -1.257812 1.03125 -1.21875 C 0.582031 -1.1875 0.128906 -1.269531 -0.328125 -1.46875 C -0.796875 -1.675781 -1.210938 -1.992188 -1.578125 -2.421875 C -1.960938 -2.867188 -2.222656 -3.34375 -2.359375 -3.84375 C -2.503906 -4.351562 -2.523438 -4.835938 -2.421875 -5.296875 C -2.328125 -5.753906 -2.109375 -6.128906 -1.765625 -6.421875 C -1.546875 -6.609375 -1.296875 -6.734375 -1.015625 -6.796875 C -0.742188 -6.867188 -0.457031 -6.894531 -0.15625 -6.875 L -2.53125 -9.65625 L -0.921875 -11.03125 L 4.90625 -4.1875 L 3.296875 -2.8125 L 3 -3.15625 C 2.988281 -2.851562 2.910156 -2.582031 2.765625 -2.34375 C 2.628906 -2.113281 2.453125 -1.90625 2.234375 -1.71875 Z M 2.5625 -2.375 C 2.695312 -2.488281 2.773438 -2.640625 2.796875 -2.828125 C 2.828125 -3.023438 2.804688 -3.242188 2.734375 -3.484375 L 0.109375 -6.546875 C -0.109375 -6.660156 -0.3125 -6.71875 -0.5 -6.71875 C -0.695312 -6.726562 -0.863281 -6.675781 -1 -6.5625 C -1.1875 -6.40625 -1.257812 -6.179688 -1.21875 -5.890625 C -1.175781 -5.609375 -1.039062 -5.289062 -0.8125 -4.9375 C -0.59375 -4.582031 -0.3125 -4.203125 0.03125 -3.796875 C 0.351562 -3.410156 0.675781 -3.082031 1 -2.8125 C 1.332031 -2.550781 1.628906 -2.375 1.890625 -2.28125 C 2.160156 -2.1875 2.382812 -2.21875 2.5625 -2.375 Z M 2.5625 -2.375 "/></g></g></g><g fill="#545454" fill-opacity="1"><g transform="translate(59.922258, 28.312323)"><g><path d="M 2.8125 -2.21875 C 2.363281 -1.832031 1.863281 -1.582031 1.3125 -1.46875 C 0.757812 -1.363281 0.222656 -1.398438 -0.296875 -1.578125 C -0.828125 -1.753906 -1.273438 -2.0625 -1.640625 -2.5 C -2.015625 -2.925781 -2.242188 -3.410156 -2.328125 -3.953125 C -2.410156 -4.503906 -2.359375 -5.039062 -2.171875 -5.5625 C -1.984375 -6.09375 -1.664062 -6.550781 -1.21875 -6.9375 C -0.625 -7.4375 -0.00390625 -7.6875 0.640625 -7.6875 C 1.285156 -7.695312 1.859375 -7.410156 2.359375 -6.828125 L -0.515625 -4.390625 C 0.109375 -3.710938 0.71875 -3.300781 1.3125 -3.15625 C 1.90625 -3.019531 2.410156 -3.132812 2.828125 -3.5 C 3.140625 -3.757812 3.320312 -4.101562 3.375 -4.53125 C 3.4375 -4.957031 3.382812 -5.394531 3.21875 -5.84375 L 3.34375 -5.90625 C 3.6875 -5.28125 3.832031 -4.632812 3.78125 -3.96875 C 3.726562 -3.300781 3.40625 -2.71875 2.8125 -2.21875 Z M -0.625 -4.5 L 0.765625 -5.671875 C 0.390625 -6.117188 0.0234375 -6.457031 -0.328125 -6.6875 C -0.679688 -6.914062 -0.960938 -6.941406 -1.171875 -6.765625 C -1.378906 -6.585938 -1.429688 -6.273438 -1.328125 -5.828125 C -1.222656 -5.390625 -0.988281 -4.945312 -0.625 -4.5 Z M -0.625 -4.5 "/></g></g></g><path fill="#545454" d="M 34.691406 76.933594 L 72.890625 44.371094 L 73.59375 45.199219 L 35.394531 77.761719 Z M 34.691406 76.933594 " fill-opacity="1" fill-rule="nonzero"/><g fill="#545454" fill-opacity="1"><g transform="translate(33.985081, 76.10833)"><g><path d="M 3.65625 -2.921875 C 3.195312 -2.535156 2.695312 -2.253906 2.15625 -2.078125 C 1.625 -1.898438 1.082031 -1.832031 0.53125 -1.875 C -0.0195312 -1.914062 -0.539062 -2.050781 -1.03125 -2.28125 C -1.519531 -2.519531 -1.953125 -2.859375 -2.328125 -3.296875 C -2.703125 -3.734375 -2.96875 -4.21875 -3.125 -4.75 C -3.289062 -5.28125 -3.34375 -5.820312 -3.28125 -6.375 C -3.226562 -6.925781 -3.070312 -7.453125 -2.8125 -7.953125 C -2.550781 -8.460938 -2.191406 -8.914062 -1.734375 -9.3125 C -1.460938 -9.550781 -1.148438 -9.734375 -0.796875 -9.859375 C -0.453125 -9.984375 -0.09375 -10.054688 0.28125 -10.078125 C 0.65625 -10.109375 1 -10.066406 1.3125 -9.953125 C 1.632812 -9.847656 1.890625 -9.679688 2.078125 -9.453125 C 2.285156 -9.210938 2.367188 -8.953125 2.328125 -8.671875 C 2.296875 -8.398438 2.160156 -8.164062 1.921875 -7.96875 C 1.628906 -7.71875 1.320312 -7.609375 1 -7.640625 C 0.675781 -7.679688 0.410156 -7.828125 0.203125 -8.078125 C 0.203125 -8.078125 0.226562 -8.109375 0.28125 -8.171875 C 0.332031 -8.242188 0.363281 -8.335938 0.375 -8.453125 C 0.382812 -8.566406 0.347656 -8.703125 0.265625 -8.859375 C 0.015625 -9.273438 -0.28125 -9.5 -0.625 -9.53125 C -0.96875 -9.5625 -1.273438 -9.457031 -1.546875 -9.21875 C -1.859375 -8.957031 -2.046875 -8.648438 -2.109375 -8.296875 C -2.171875 -7.953125 -2.132812 -7.582031 -2 -7.1875 C -1.863281 -6.789062 -1.664062 -6.394531 -1.40625 -6 C -1.144531 -5.601562 -0.859375 -5.222656 -0.546875 -4.859375 C -0.0351562 -4.265625 0.460938 -3.78125 0.953125 -3.40625 C 1.441406 -3.039062 1.914062 -2.828125 2.375 -2.765625 C 2.832031 -2.703125 3.257812 -2.835938 3.65625 -3.171875 C 3.8125 -3.304688 3.988281 -3.488281 4.1875 -3.71875 C 4.382812 -3.957031 4.535156 -4.257812 4.640625 -4.625 C 4.753906 -5 4.773438 -5.457031 4.703125 -6 L 4.828125 -6.109375 C 4.929688 -5.640625 4.929688 -5.203125 4.828125 -4.796875 C 4.734375 -4.390625 4.578125 -4.03125 4.359375 -3.71875 C 4.148438 -3.40625 3.914062 -3.144531 3.65625 -2.9375 Z M 3.65625 -2.921875 "/></g></g></g><g fill="#545454" fill-opacity="1"><g transform="translate(40.131955, 70.868713)"><g><path d="M 2.8125 -2.203125 C 2.351562 -1.816406 1.847656 -1.570312 1.296875 -1.46875 C 0.753906 -1.363281 0.222656 -1.394531 -0.296875 -1.5625 C -0.816406 -1.738281 -1.265625 -2.046875 -1.640625 -2.484375 C -2.003906 -2.921875 -2.226562 -3.410156 -2.3125 -3.953125 C -2.40625 -4.492188 -2.359375 -5.023438 -2.171875 -5.546875 C -1.984375 -6.078125 -1.660156 -6.535156 -1.203125 -6.921875 C -0.753906 -7.304688 -0.257812 -7.546875 0.28125 -7.640625 C 0.820312 -7.742188 1.359375 -7.710938 1.890625 -7.546875 C 2.421875 -7.378906 2.867188 -7.078125 3.234375 -6.640625 C 3.609375 -6.203125 3.832031 -5.707031 3.90625 -5.15625 C 3.988281 -4.613281 3.9375 -4.082031 3.75 -3.5625 C 3.570312 -3.039062 3.257812 -2.585938 2.8125 -2.203125 Z M 2.71875 -2.3125 C 2.914062 -2.488281 2.992188 -2.726562 2.953125 -3.03125 C 2.910156 -3.332031 2.769531 -3.671875 2.53125 -4.046875 C 2.289062 -4.429688 1.988281 -4.835938 1.625 -5.265625 C 1.257812 -5.691406 0.898438 -6.050781 0.546875 -6.34375 C 0.203125 -6.632812 -0.109375 -6.820312 -0.390625 -6.90625 C -0.679688 -7 -0.921875 -6.96875 -1.109375 -6.8125 C -1.316406 -6.644531 -1.394531 -6.410156 -1.34375 -6.109375 C -1.300781 -5.804688 -1.160156 -5.460938 -0.921875 -5.078125 C -0.691406 -4.691406 -0.394531 -4.285156 -0.03125 -3.859375 C 0.332031 -3.429688 0.6875 -3.070312 1.03125 -2.78125 C 1.375 -2.488281 1.6875 -2.296875 1.96875 -2.203125 C 2.257812 -2.109375 2.507812 -2.144531 2.71875 -2.3125 Z M 2.71875 -2.3125 "/></g></g></g><g fill="#545454" fill-opacity="1"><g transform="translate(45.551778, 66.248835)"><g><path d="M 0.546875 -0.46875 L -3.28125 -4.96875 L -1.65625 -6.34375 L -0.953125 -5.5 C -0.960938 -5.738281 -0.953125 -6.003906 -0.921875 -6.296875 C -0.890625 -6.597656 -0.8125 -6.894531 -0.6875 -7.1875 C -0.5625 -7.488281 -0.375 -7.742188 -0.125 -7.953125 C 0.25 -8.273438 0.632812 -8.4375 1.03125 -8.4375 C 1.425781 -8.4375 1.734375 -8.3125 1.953125 -8.0625 L 5.109375 -4.359375 L 3.515625 -2.984375 L 0.328125 -6.71875 C 0.078125 -7.019531 -0.148438 -7.117188 -0.359375 -7.015625 C -0.566406 -6.910156 -0.703125 -6.691406 -0.765625 -6.359375 C -0.785156 -6.273438 -0.796875 -6.113281 -0.796875 -5.875 C -0.804688 -5.644531 -0.800781 -5.457031 -0.78125 -5.3125 L 2.171875 -1.84375 Z M 0.546875 -0.46875 "/></g></g></g><g fill="#545454" fill-opacity="1"><g transform="translate(51.213947, 61.422382)"><g><path d="M -1.234375 -6.515625 L -1.65625 -6.171875 L 1.28125 -2.71875 C 1.363281 -2.625 1.453125 -2.546875 1.546875 -2.484375 C 1.640625 -2.421875 1.722656 -2.421875 1.796875 -2.484375 C 1.828125 -2.515625 1.835938 -2.5625 1.828125 -2.625 C 1.816406 -2.695312 1.742188 -2.820312 1.609375 -3 L 1.703125 -3.046875 C 1.953125 -2.765625 2.0625 -2.4375 2.03125 -2.0625 C 2 -1.6875 1.84375 -1.378906 1.5625 -1.140625 C 1.28125 -0.898438 0.957031 -0.796875 0.59375 -0.828125 C 0.238281 -0.859375 -0.0507812 -1.007812 -0.28125 -1.28125 L -3.265625 -4.796875 L -3.734375 -4.390625 L -3.828125 -4.5 L -3.265625 -4.96875 C -2.847656 -5.363281 -2.632812 -5.8125 -2.625 -6.3125 C -2.613281 -6.8125 -2.804688 -7.289062 -3.203125 -7.75 L -3.09375 -7.84375 L -1.75 -6.28125 L -1.328125 -6.625 Z M -1.234375 -6.515625 "/></g></g></g><g fill="#545454" fill-opacity="1"><g transform="translate(53.98995, 59.056107)"><g><path d="M -0.5 -7.53125 C -0.28125 -7.71875 -0.03125 -7.859375 0.25 -7.953125 C 0.53125 -8.046875 0.804688 -8.050781 1.078125 -7.96875 C 1.359375 -7.894531 1.628906 -7.707031 1.890625 -7.40625 C 2.023438 -7.238281 2.132812 -7.054688 2.21875 -6.859375 C 2.300781 -6.671875 2.316406 -6.46875 2.265625 -6.25 C 2.222656 -6.039062 2.09375 -5.835938 1.875 -5.640625 C 1.65625 -5.453125 1.421875 -5.378906 1.171875 -5.421875 C 0.921875 -5.472656 0.734375 -5.5625 0.609375 -5.6875 C 0.609375 -5.6875 0.625 -5.753906 0.65625 -5.890625 C 0.695312 -6.035156 0.710938 -6.207031 0.703125 -6.40625 C 0.691406 -6.601562 0.609375 -6.789062 0.453125 -6.96875 C 0.304688 -7.132812 0.132812 -7.238281 -0.0625 -7.28125 C -0.269531 -7.320312 -0.453125 -7.273438 -0.609375 -7.140625 C -0.816406 -6.960938 -0.945312 -6.726562 -1 -6.4375 C -1.050781 -6.144531 -1.03125 -5.832031 -0.9375 -5.5 L 2.171875 -1.84375 L 0.546875 -0.46875 L -3.28125 -4.96875 L -1.65625 -6.34375 L -1.125 -5.703125 C -1.195312 -6.054688 -1.179688 -6.382812 -1.078125 -6.6875 C -0.984375 -7 -0.789062 -7.28125 -0.5 -7.53125 Z M -0.5 -7.53125 "/></g></g></g><g fill="#545454" fill-opacity="1"><g transform="translate(58.91406, 54.858778)"><g><path d="M -3.34375 -5.921875 L -3.484375 -5.953125 C -3.484375 -6.441406 -3.457031 -6.910156 -3.40625 -7.359375 C -3.351562 -7.804688 -3.289062 -8.179688 -3.21875 -8.484375 C -3.15625 -8.796875 -3.085938 -8.976562 -3.015625 -9.03125 C -2.953125 -9.082031 -2.757812 -9.117188 -2.4375 -9.140625 C -2.125 -9.171875 -1.742188 -9.175781 -1.296875 -9.15625 C -0.847656 -9.132812 -0.382812 -9.078125 0.09375 -8.984375 L 0.109375 -8.859375 C 0.109375 -8.859375 0.0234375 -8.847656 -0.140625 -8.828125 C -0.304688 -8.816406 -0.507812 -8.789062 -0.75 -8.75 C -1 -8.71875 -1.25 -8.6875 -1.5 -8.65625 C -1.757812 -8.625 -1.984375 -8.585938 -2.171875 -8.546875 C -2.359375 -8.503906 -2.46875 -8.46875 -2.5 -8.4375 C -2.539062 -8.40625 -2.597656 -8.300781 -2.671875 -8.125 C -2.742188 -7.945312 -2.816406 -7.734375 -2.890625 -7.484375 C -2.972656 -7.242188 -3.046875 -7.003906 -3.109375 -6.765625 C -3.179688 -6.523438 -3.238281 -6.320312 -3.28125 -6.15625 C -3.320312 -6 -3.34375 -5.921875 -3.34375 -5.921875 Z M 2.8125 -2.203125 C 2.351562 -1.816406 1.847656 -1.570312 1.296875 -1.46875 C 0.753906 -1.363281 0.222656 -1.394531 -0.296875 -1.5625 C -0.816406 -1.738281 -1.265625 -2.046875 -1.640625 -2.484375 C -2.003906 -2.921875 -2.226562 -3.410156 -2.3125 -3.953125 C -2.40625 -4.492188 -2.359375 -5.023438 -2.171875 -5.546875 C -1.984375 -6.078125 -1.660156 -6.535156 -1.203125 -6.921875 C -0.753906 -7.304688 -0.257812 -7.546875 0.28125 -7.640625 C 0.820312 -7.742188 1.359375 -7.710938 1.890625 -7.546875 C 2.421875 -7.378906 2.867188 -7.078125 3.234375 -6.640625 C 3.609375 -6.203125 3.832031 -5.707031 3.90625 -5.15625 C 3.988281 -4.613281 3.9375 -4.082031 3.75 -3.5625 C 3.570312 -3.039062 3.257812 -2.585938 2.8125 -2.203125 Z M 2.71875 -2.3125 C 2.914062 -2.488281 2.992188 -2.726562 2.953125 -3.03125 C 2.910156 -3.332031 2.769531 -3.671875 2.53125 -4.046875 C 2.289062 -4.429688 1.988281 -4.835938 1.625 -5.265625 C 1.257812 -5.691406 0.898438 -6.050781 0.546875 -6.34375 C 0.203125 -6.632812 -0.109375 -6.820312 -0.390625 -6.90625 C -0.679688 -7 -0.921875 -6.96875 -1.109375 -6.8125 C -1.316406 -6.644531 -1.394531 -6.410156 -1.34375 -6.109375 C -1.300781 -5.804688 -1.160156 -5.460938 -0.921875 -5.078125 C -0.691406 -4.691406 -0.394531 -4.285156 -0.03125 -3.859375 C 0.332031 -3.429688 0.6875 -3.070312 1.03125 -2.78125 C 1.375 -2.488281 1.6875 -2.296875 1.96875 -2.203125 C 2.257812 -2.109375 2.507812 -2.144531 2.71875 -2.3125 Z M 2.71875 -2.3125 "/></g></g></g><g fill="#545454" fill-opacity="1"><g transform="translate(64.333883, 50.2389)"><g><path d="M 0.546875 -0.46875 L -5.28125 -7.3125 L -3.65625 -8.6875 L 2.171875 -1.84375 Z M 0.546875 -0.46875 "/></g></g></g><g fill="#545454" fill-opacity="1"><g transform="translate(67.043789, 47.928967)"><g><path d="M 2.8125 -2.21875 C 2.363281 -1.832031 1.863281 -1.582031 1.3125 -1.46875 C 0.757812 -1.363281 0.222656 -1.398438 -0.296875 -1.578125 C -0.828125 -1.753906 -1.273438 -2.0625 -1.640625 -2.5 C -2.015625 -2.925781 -2.242188 -3.410156 -2.328125 -3.953125 C -2.410156 -4.503906 -2.359375 -5.039062 -2.171875 -5.5625 C -1.984375 -6.09375 -1.664062 -6.550781 -1.21875 -6.9375 C -0.625 -7.4375 -0.00390625 -7.6875 0.640625 -7.6875 C 1.285156 -7.695312 1.859375 -7.410156 2.359375 -6.828125 L -0.515625 -4.390625 C 0.109375 -3.710938 0.71875 -3.300781 1.3125 -3.15625 C 1.90625 -3.019531 2.410156 -3.132812 2.828125 -3.5 C 3.140625 -3.757812 3.320312 -4.101562 3.375 -4.53125 C 3.4375 -4.957031 3.382812 -5.394531 3.21875 -5.84375 L 3.34375 -5.90625 C 3.6875 -5.28125 3.832031 -4.632812 3.78125 -3.96875 C 3.726562 -3.300781 3.40625 -2.71875 2.8125 -2.21875 Z M -0.625 -4.5 L 0.765625 -5.671875 C 0.390625 -6.117188 0.0234375 -6.457031 -0.328125 -6.6875 C -0.679688 -6.914062 -0.960938 -6.941406 -1.171875 -6.765625 C -1.378906 -6.585938 -1.429688 -6.273438 -1.328125 -5.828125 C -1.222656 -5.390625 -0.988281 -4.945312 -0.625 -4.5 Z M -0.625 -4.5 "/></g></g></g></svg>